# xmcd
#
# Track frame offsets:
# 150
# 13188
# 28152
# 41794
# 55810
# 69554
# 83280
# 96147
# 107934
# 119736
# 134073
# 147611
# 164980
#
# Disc length: 2382 seconds
#
#
# Revision: 2
# Processed by: cddbd v1.5.2PL0 Copyright (c) Steve Scherf et al.
# Submitted via: FreeRIP 2.96 
#
DISCID=c9094c0d
DTITLE=Batidão Sertanejo 2 - CD 2 - Batidão Sertanejo 2 - CD 2
DYEAR=2010
DGENRE=Country
TTITLE0=Tchau, Tchau (Ao Vivo) Maria Cecília and Rodolfo
TTITLE1=Inventor Dos Amores - Gustavo Lima Part. Jorge and Mateus
TTITLE2=Mete Sua Boca - Guilherme and Santiago
TTITLE3=Fugidinha (Ao Vivo) Michel Teló
TTITLE4=Sonho Bom - Munhoz and Mariano
TTITLE5=Ah, Tá - Carlos and Jader
TTITLE6=Xique Bacanizado (Ao Vivo) João Carreiro and Capataz
TTITLE7=Chora (Chora de Noite, Chora de Dia) - Tato and Ed Reis
TTITLE8=Tô "P" Da Vida - Adson and Alana
TTITLE9=Afinal - Luis Guilherme and Nadielly
TTITLE10=Beijo - Roger and Rogério
TTITLE11=Doideira (Virou Minha Cabeça) Breno and Caio César
TTITLE12=Chiclete - Diego Monteiro
EXTD=Ano 2010 - M. P. A.
EXTT0=
EXTT1=
EXTT2=
EXTT3=
EXTT4=
EXTT5=
EXTT6=
EXTT7=
EXTT8=
EXTT9=
EXTT10=
EXTT11=
EXTT12=
PLAYORDER=
